<svg width="20" height="20" viewBox="0 0 20 20" fill="none" xmlns="http://www.w3.org/2000/svg">
<g clip-path="url(#clip0_900_493)">
<mask id="mask0_900_493" style="mask-type:alpha" maskUnits="userSpaceOnUse" x="0" y="0" width="20" height="20">
<rect width="20" height="20" fill="#D9D9D9"/>
</mask>
<g mask="url(#mask0_900_493)">
<path d="M10.0015 6.5C8.95881 6.5 7.9359 6.65945 6.9327 6.97833C5.92965 7.29722 5.00763 7.76972 4.16666 8.39583C3.87499 8.60417 3.55465 8.70486 3.20562 8.69792C2.85659 8.69097 2.55888 8.5625 2.31249 8.3125C2.06249 8.0625 1.94444 7.76736 1.95833 7.42708C1.97221 7.08681 2.11805 6.8125 2.39583 6.60417C3.48041 5.76028 4.67284 5.11528 5.97312 4.66917C7.2734 4.22306 8.61374 4 9.99416 4C11.3869 4 12.7396 4.22222 14.0521 4.66667C15.3646 5.11111 16.5625 5.75694 17.6458 6.60417C17.9236 6.8125 18.0625 7.09028 18.0625 7.4375C18.0625 7.78472 17.9444 8.07639 17.7083 8.3125C17.4615 8.5625 17.1637 8.69097 16.8148 8.69792C16.466 8.70486 16.1458 8.60417 15.8542 8.39583C15.0096 7.76972 14.0867 7.29722 13.0854 6.97833C12.084 6.65945 11.056 6.5 10.0015 6.5ZM9.99999 11C9.53472 11 9.08367 11.0556 8.64687 11.1667C8.20992 11.2778 7.79291 11.4444 7.39583 11.6667C7.07638 11.8333 6.74228 11.9097 6.39353 11.8958C6.04478 11.8819 5.74694 11.75 5.49999 11.5C5.26388 11.2639 5.1493 10.9757 5.15624 10.6354C5.16319 10.2951 5.30555 10.0278 5.58333 9.83333C6.2361 9.38889 6.93624 9.05556 7.68374 8.83333C8.43138 8.61111 9.20347 8.5 9.99999 8.5C10.7965 8.5 11.5686 8.61111 12.3162 8.83333C13.0637 9.05556 13.7639 9.38889 14.4167 9.83333C14.6944 10.0278 14.8403 10.2951 14.8542 10.6354C14.868 10.9757 14.7569 11.2639 14.5208 11.5C14.2708 11.75 13.9687 11.8819 13.6146 11.8958C13.2604 11.9097 12.9236 11.8333 12.6042 11.6667C12.2071 11.4444 11.7901 11.2778 11.3531 11.1667C10.9163 11.0556 10.4653 11 9.99999 11ZM8.93749 15.5581C8.64583 15.2635 8.49999 14.9094 8.49999 14.4956C8.49999 14.0819 8.64728 13.7292 8.94187 13.4375C9.23645 13.1458 9.59062 13 10.0044 13C10.4181 13 10.7708 13.1473 11.0625 13.4419C11.3542 13.7365 11.5 14.0906 11.5 14.5044C11.5 14.9181 11.3527 15.2708 11.0581 15.5625C10.7635 15.8542 10.4094 16 9.99562 16C9.58187 16 9.22916 15.8527 8.93749 15.5581Z" fill="#BAC8DE"/>
</g>
</g>
<defs>
<clipPath id="clip0_900_493">
<rect width="20" height="20" fill="white"/>
</clipPath>
</defs>
</svg>
