<svg width="20" height="20" viewBox="0 0 20 20" fill="none" xmlns="http://www.w3.org/2000/svg">
<g clip-path="url(#clip0_437_7821)">
<mask id="mask0_437_7821" style="mask-type:alpha" maskUnits="userSpaceOnUse" x="0" y="0" width="20" height="20">
<rect width="20" height="20" fill="#D9D9D9"/>
</mask>
<g mask="url(#mask0_437_7821)">
<path d="M13 19C11.8064 19 10.6955 18.6667 9.66729 18C8.6391 17.3333 7.91667 16.4722 7.5 15.4167C7.38889 15.2222 7.34028 15.0104 7.35417 14.7812C7.36806 14.5521 7.4375 14.3403 7.5625 14.1458C7.6875 13.9514 7.85764 13.7951 8.07292 13.6771C8.28819 13.559 8.51389 13.5 8.75 13.5H14.0413C14.0554 13.3889 14.0625 13.2741 14.0625 13.1556V12.7917C14.0625 12.6667 14.059 12.5382 14.0521 12.4062C14.0451 12.2743 14.0347 12.1389 14.0208 12H12.5833C12.3708 12 12.1927 11.9285 12.049 11.7856C11.9052 11.6427 11.8333 11.4656 11.8333 11.2544C11.8333 11.0431 11.9052 10.8646 12.049 10.7188C12.1927 10.5729 12.3708 10.5 12.5833 10.5H16.75C16.4722 10.0972 16.1493 9.75 15.7812 9.45833C15.4132 9.16667 15.0069 8.9375 14.5625 8.77083C14.3264 8.6875 14.1493 8.55556 14.0312 8.375C13.9132 8.19444 13.8819 8.00347 13.9375 7.80208C13.9931 7.60069 14.1007 7.44444 14.2604 7.33333C14.4201 7.22222 14.5833 7.19444 14.75 7.25C16.0139 7.63889 17.0382 8.36111 17.8229 9.41667C18.6076 10.4722 19 11.6667 19 13C19 14.6667 18.4167 16.0833 17.25 17.25C16.0833 18.4167 14.6667 19 13 19ZM11.1667 17.0833C11.0417 16.7361 10.9333 16.3919 10.8417 16.0506C10.75 15.7094 10.6708 15.3592 10.6042 15H9C9.23611 15.4583 9.53819 15.8646 9.90625 16.2188C10.2743 16.5729 10.6944 16.8611 11.1667 17.0833ZM13 17.4167C13.2222 17.0417 13.3993 16.6493 13.5312 16.2396C13.6632 15.8299 13.7708 15.4167 13.8542 15H12.125C12.2083 15.4167 12.3229 15.8299 12.4688 16.2396C12.6146 16.6493 12.7917 17.0417 13 17.4167ZM14.8125 17.125C15.2986 16.9167 15.7326 16.6285 16.1146 16.2604C16.4965 15.8924 16.8056 15.4722 17.0417 15H15.375C15.3056 15.3611 15.2257 15.7188 15.1354 16.0729C15.0451 16.4271 14.9375 16.7778 14.8125 17.125ZM15.5417 13.5H17.4792C17.4931 13.4138 17.5035 13.3297 17.5104 13.2479C17.5174 13.166 17.5208 13.0833 17.5208 13C17.5208 12.8194 17.5104 12.6458 17.4896 12.4792C17.4688 12.3125 17.4375 12.1528 17.3958 12H15.5417C15.5556 12.1389 15.5625 12.2708 15.5625 12.3958V13.1458C15.5625 13.2708 15.5556 13.3889 15.5417 13.5ZM7 13C5.33333 13 3.91667 12.4167 2.75 11.25C1.58333 10.0833 1 8.66667 1 7C1 5.33333 1.58333 3.91667 2.75 2.75C3.91667 1.58333 5.33333 1 7 1C8.66667 1 10.0833 1.58333 11.25 2.75C12.4167 3.91667 13 5.33333 13 7C13 8.66667 12.4167 10.0833 11.25 11.25C10.0833 12.4167 8.66667 13 7 13ZM7 11.5C8.25 11.5 9.3125 11.0625 10.1875 10.1875C11.0625 9.3125 11.5 8.25 11.5 7C11.5 5.75 11.0625 4.6875 10.1875 3.8125C9.3125 2.9375 8.25 2.5 7 2.5C5.75 2.5 4.6875 2.9375 3.8125 3.8125C2.9375 4.6875 2.5 5.75 2.5 7C2.5 8.25 2.9375 9.3125 3.8125 10.1875C4.6875 11.0625 5.75 11.5 7 11.5ZM4.99563 6.5C5.20688 6.5 5.38542 6.42854 5.53125 6.28563C5.67708 6.14271 5.75 5.96563 5.75 5.75438C5.75 5.54313 5.67854 5.36458 5.53562 5.21875C5.39271 5.07292 5.21563 5 5.00438 5C4.79313 5 4.61458 5.07146 4.46875 5.21437C4.32292 5.35729 4.25 5.53437 4.25 5.74562C4.25 5.95687 4.32146 6.13542 4.46438 6.28125C4.60729 6.42708 4.78438 6.5 4.99563 6.5ZM6.99604 9.875C7.62368 9.875 8.18403 9.70139 8.67708 9.35417C9.17014 9.00694 9.52778 8.55556 9.75 8H4.25C4.47222 8.55556 4.82854 9.00694 5.31896 9.35417C5.80924 9.70139 6.36826 9.875 6.99604 9.875ZM8.99563 6.5C9.20688 6.5 9.38542 6.42854 9.53125 6.28563C9.67708 6.14271 9.75 5.96563 9.75 5.75438C9.75 5.54313 9.67854 5.36458 9.53563 5.21875C9.39271 5.07292 9.21563 5 9.00438 5C8.79313 5 8.61458 5.07146 8.46875 5.21437C8.32292 5.35729 8.25 5.53437 8.25 5.74562C8.25 5.95687 8.32146 6.13542 8.46438 6.28125C8.60729 6.42708 8.78438 6.5 8.99563 6.5Z" fill="#BAC8DE"/>
</g>
</g>
<defs>
<clipPath id="clip0_437_7821">
<rect width="20" height="20" fill="white"/>
</clipPath>
</defs>
</svg>
